{
    "asset" : {
        "generator" : "Khronos glTF Blender I/O v1.3.48",
        "version" : "2.0"
    },
    "scene" : 0,
    "scenes" : [
        {
            "name" : "Scene",
            "nodes" : [
                0
            ]
        }
    ],
    "nodes" : [
        {
            "mesh" : 0,
            "name" : "BezierCurve",
            "translation" : [
                0.04174160957336426,
                0,
                0.16689491271972656
            ]
        }
    ],
    "materials" : [
        {
            "doubleSided" : true,
            "emissiveFactor" : [
                0,
                0,
                0
            ],
            "name" : "Material.002",
            "pbrMetallicRoughness" : {
                "baseColorFactor" : [
                    0.8000000715255737,
                    0.002479908987879753,
                    0,
                    1
                ],
                "metallicFactor" : 0,
                "roughnessFactor" : 0.5
            }
        }
    ],
    "meshes" : [
        {
            "name" : "BezierCurve",
            "primitives" : [
                {
                    "attributes" : {
                        "POSITION" : 0,
                        "NORMAL" : 1,
                        "TEXCOORD_0" : 2
                    },
                    "indices" : 3,
                    "material" : 0
                }
            ]
        }
    ],
    "accessors" : [
        {
            "bufferView" : 0,
            "componentType" : 5126,
            "count" : 15477,
            "max" : [
                2.369035482406616,
                0.07246886193752289,
                2.070814609527588
            ],
            "min" : [
                -2.0631496906280518,
                -0.07246886193752289,
                -2.1631877422332764
            ],
            "type" : "VEC3"
        },
        {
            "bufferView" : 1,
            "componentType" : 5126,
            "count" : 15477,
            "type" : "VEC3"
        },
        {
            "bufferView" : 2,
            "componentType" : 5126,
            "count" : 15477,
            "type" : "VEC2"
        },
        {
            "bufferView" : 3,
            "componentType" : 5123,
            "count" : 82080,
            "type" : "SCALAR"
        }
    ],
    "bufferViews" : [
        {
            "buffer" : 0,
            "byteLength" : 185724,
            "byteOffset" : 0
        },
        {
            "buffer" : 0,
            "byteLength" : 185724,
            "byteOffset" : 185724
        },
        {
            "buffer" : 0,
            "byteLength" : 123816,
            "byteOffset" : 371448
        },
        {
            "buffer" : 0,
            "byteLength" : 164160,
            "byteOffset" : 495264
        }
    ],
    "buffers" : [
        {
            "byteLength" : 659424,
            "uri" : "data:application/octet-stream;base64,"
        }
    ]
}
